<svg xmlns:dc="http://purl.org/dc/elements/1.1/" xmlns:cc="http://creativecommons.org/ns#" xmlns:rdf="http://www.w3.org/1999/02/22-rdf-syntax-ns#" xmlns:svg="http://www.w3.org/2000/svg" xmlns="http://www.w3.org/2000/svg" xmlns:sodipodi="http://sodipodi.sourceforge.net/DTD/sodipodi-0.dtd" xmlns:inkscape="http://www.inkscape.org/namespaces/inkscape" viewBox="0 0 16.933333 21.1666675" version="1.1" x="0px" y="0px"><g transform="translate(0,-280.06665)"><g transform="matrix(0.26458334,0,0,0.26458334,-213.78334,-505.31259)"><path style="color:#000000;font-style:normal;font-variant:normal;font-weight:normal;font-stretch:normal;font-size:medium;line-height:normal;font-family:sans-serif;font-variant-ligatures:normal;font-variant-position:normal;font-variant-caps:normal;font-variant-numeric:normal;font-variant-alternates:normal;font-feature-settings:normal;text-indent:0;text-align:start;text-decoration:none;text-decoration-line:none;text-decoration-style:solid;text-decoration-color:#000000;letter-spacing:normal;word-spacing:normal;text-transform:none;writing-mode:lr-tb;direction:ltr;text-orientation:mixed;dominant-baseline:auto;baseline-shift:baseline;text-anchor:start;white-space:normal;shape-padding:0;clip-rule:nonzero;display:inline;overflow:visible;visibility:visible;opacity:1;isolation:auto;mix-blend-mode:normal;color-interpolation:sRGB;color-interpolation-filters:linearRGB;solid-color:#000000;solid-opacity:1;vector-effect:none;fill:#000000;fill-opacity:1;fill-rule:nonzero;stroke:none;stroke-width:1.99999988;stroke-linecap:round;stroke-linejoin:round;stroke-miterlimit:4;stroke-dasharray:none;stroke-dashoffset:0;stroke-opacity:1;color-rendering:auto;image-rendering:auto;shape-rendering:auto;text-rendering:auto;enable-background:accumulate" d="m 839.0317,3024.3626 c 3.4342,0 7.9846,-1.1044 11.4181,-4.5917 4.1347,-4.1994 8.2878,-8.3939 12.4119,-12.6071 0.6302,-0.6441 1.1106,-1.6025 1.1382,-2.75 a 0.99976326,1.000078 0 0 0 0,-0.014 c 10e-5,-0.01 10e-5,-0.022 0,-0.033 0,-2.1932 -1.8027,-4.0038 -3.9967,-4.0038 -2.0032,0 -0.8036,0.014 -1.9875,0 -1.1982,-0.015 -2.1126,0.6607 -2.7335,1.3106 -1.9066,1.9954 -4.9729,4.9725 -4.9729,4.9725 a 0.99976326,1.000078 0 1 0 1.3901,1.4356 c 0,0 3.0679,-2.9763 5.0276,-5.0273 0.436,-0.4563 0.8211,-0.6968 1.2652,-0.6914 1.184,0.014 0.017,0 2.011,0 1.0893,0 1.9974,0.9117 1.9974,2.0038 -0.014,0.5964 -0.292,1.1144 -0.5682,1.3965 -4.1185,4.2076 -8.2705,8.401 -12.4079,12.6032 -2.9565,3.0028 -6.9936,3.9961 -9.9928,3.9961 h -22.01594 a 0.99976326,1.000078 0 1 0 0,1.9999 z"/><path style="color:#000000;font-style:normal;font-variant:normal;font-weight:normal;font-stretch:normal;font-size:medium;line-height:normal;font-family:sans-serif;font-variant-ligatures:normal;font-variant-position:normal;font-variant-caps:normal;font-variant-numeric:normal;font-variant-alternates:normal;font-feature-settings:normal;text-indent:0;text-align:start;text-decoration:none;text-decoration-line:none;text-decoration-style:solid;text-decoration-color:#000000;letter-spacing:normal;word-spacing:normal;text-transform:none;writing-mode:lr-tb;direction:ltr;text-orientation:mixed;dominant-baseline:auto;baseline-shift:baseline;text-anchor:start;white-space:normal;shape-padding:0;clip-rule:nonzero;display:inline;overflow:visible;visibility:visible;opacity:1;isolation:auto;mix-blend-mode:normal;color-interpolation:sRGB;color-interpolation-filters:linearRGB;solid-color:#000000;solid-opacity:1;vector-effect:none;fill:#000000;fill-opacity:1;fill-rule:nonzero;stroke:none;stroke-width:2;stroke-linecap:round;stroke-linejoin:round;stroke-miterlimit:4;stroke-dasharray:none;stroke-dashoffset:0;stroke-opacity:1;paint-order:markers fill stroke;color-rendering:auto;image-rendering:auto;shape-rendering:auto;text-rendering:auto;enable-background:accumulate" d="m 844.0047,3016.3626 c 2.1961,0 3.9959,-1.8032 3.9959,-3.9999 0,-2.1967 -1.7998,-3.9999 -3.9959,-3.9999 a 1.0000271,1.0000781 0 1 0 0,1.9999 c 1.1142,0 1.996,0.883 1.996,2 0,1.1171 -0.8818,1.9999 -1.996,1.9999 h -10.9894 a 1.0000271,1.0000781 0 1 0 0,2 z"/><path style="color:#000000;font-style:normal;font-variant:normal;font-weight:normal;font-stretch:normal;font-size:medium;line-height:normal;font-family:sans-serif;font-variant-ligatures:normal;font-variant-position:normal;font-variant-caps:normal;font-variant-numeric:normal;font-variant-alternates:normal;font-feature-settings:normal;text-indent:0;text-align:start;text-decoration:none;text-decoration-line:none;text-decoration-style:solid;text-decoration-color:#000000;letter-spacing:normal;word-spacing:normal;text-transform:none;writing-mode:lr-tb;direction:ltr;text-orientation:mixed;dominant-baseline:auto;baseline-shift:baseline;text-anchor:start;white-space:normal;shape-padding:0;clip-rule:nonzero;display:inline;overflow:visible;visibility:visible;opacity:1;isolation:auto;mix-blend-mode:normal;color-interpolation:sRGB;color-interpolation-filters:linearRGB;solid-color:#000000;solid-opacity:1;vector-effect:none;fill:#000000;fill-opacity:1;fill-rule:nonzero;stroke:none;stroke-width:1.99999988;stroke-linecap:round;stroke-linejoin:round;stroke-miterlimit:4;stroke-dasharray:none;stroke-dashoffset:0;stroke-opacity:1;color-rendering:auto;image-rendering:auto;shape-rendering:auto;text-rendering:auto;enable-background:accumulate" d="m 817.01276,3012.3626 c 2.6659,0.01 4.33483,-1.359 5.85887,-2.2969 1.58694,-0.9766 2.84939,-1.703 4.82001,-1.703 1.83693,0 3.16506,0.2996 4.59136,0.7362 2.9315,0.8976 6.2627,1.2657 11.704,1.2657 a 1.0000176,1.000078 0 1 0 0,-1.9999 c -5.3512,0 -8.4436,-0.3609 -11.1182,-1.1797 -1.5214,-0.4659 -3.11634,-0.8223 -5.17716,-0.8223 -2.4866,0 -4.24553,1.0003 -5.86677,1.9981 -1.68403,1.0362 -2.81239,2.0096 -4.80431,2.0018 a 1.0000176,1.000078 0 1 0 -0.01,2 z"/><path d="M 838.98438,2992.3621 A 1.0001,1.0002236 0 0 0 838,2993.376 v 7.9716 a 1.0001,1.0002236 0 1 0 2,0 v -7.9716 a 1.0001,1.0002236 0 0 0 -1.01562,-1.0139 z" style="color:#000000;font-style:normal;font-variant:normal;font-weight:normal;font-stretch:normal;font-size:medium;line-height:normal;font-family:sans-serif;font-variant-ligatures:normal;font-variant-position:normal;font-variant-caps:normal;font-variant-numeric:normal;font-variant-alternates:normal;font-feature-settings:normal;text-indent:0;text-align:start;text-decoration:none;text-decoration-line:none;text-decoration-style:solid;text-decoration-color:#000000;letter-spacing:normal;word-spacing:normal;text-transform:none;writing-mode:lr-tb;direction:ltr;text-orientation:mixed;dominant-baseline:auto;baseline-shift:baseline;text-anchor:start;white-space:normal;shape-padding:0;clip-rule:nonzero;display:inline;overflow:visible;visibility:visible;opacity:1;isolation:auto;mix-blend-mode:normal;color-interpolation:sRGB;color-interpolation-filters:linearRGB;solid-color:#000000;solid-opacity:1;vector-effect:none;fill:#000000;fill-opacity:1;fill-rule:nonzero;stroke:none;stroke-width:2;stroke-linecap:round;stroke-linejoin:round;stroke-miterlimit:4;stroke-dasharray:none;stroke-dashoffset:0;stroke-opacity:1;color-rendering:auto;image-rendering:auto;shape-rendering:auto;text-rendering:auto;enable-background:accumulate"/><path d="m 848.9937,2982.3619 a 1.0002393,1.0001926 0 0 0 -0.45124,0.1113 c -1.23737,0.6184 -3.6892,2.3628 -6.02233,4.8246 -2.33312,2.462 -4.52016,5.6095 -4.52016,9.0498 a 1.0002393,1.0001926 0 1 0 2.00028,0 c 0,-2.551 1.80954,-5.3936 3.97126,-7.6746 2.16172,-2.2811 4.70331,-4.0305 5.46365,-4.4106 a 1.0002393,1.0001926 0 0 0 -0.44146,-1.9005 z" style="color:#000000;font-style:normal;font-variant:normal;font-weight:normal;font-stretch:normal;font-size:medium;line-height:normal;font-family:sans-serif;font-variant-ligatures:normal;font-variant-position:normal;font-variant-caps:normal;font-variant-numeric:normal;font-variant-alternates:normal;font-feature-settings:normal;text-indent:0;text-align:start;text-decoration:none;text-decoration-line:none;text-decoration-style:solid;text-decoration-color:#000000;letter-spacing:normal;word-spacing:normal;text-transform:none;writing-mode:lr-tb;direction:ltr;text-orientation:mixed;dominant-baseline:auto;baseline-shift:baseline;text-anchor:start;white-space:normal;shape-padding:0;clip-rule:nonzero;display:inline;overflow:visible;visibility:visible;opacity:1;isolation:auto;mix-blend-mode:normal;color-interpolation:sRGB;color-interpolation-filters:linearRGB;solid-color:#000000;solid-opacity:1;vector-effect:none;fill:#000000;fill-opacity:1;fill-rule:nonzero;stroke:none;stroke-width:1.99999964;stroke-linecap:round;stroke-linejoin:round;stroke-miterlimit:4;stroke-dasharray:none;stroke-dashoffset:0;stroke-opacity:1;paint-order:fill markers stroke;color-rendering:auto;image-rendering:auto;shape-rendering:auto;text-rendering:auto;enable-background:accumulate"/><path d="m 823.00977,2976.3625 a 1.0001396,1.0001396 0 0 0 -1.00981,1.0098 c 0,0 0.0219,2.4178 0.37696,5.178 0.3551,2.7602 0.87351,5.86 2.59582,7.5823 2.97316,2.9732 7.82414,2.9731 10.7973,0 2.97315,-2.9732 2.97317,-7.8241 0,-10.7974 -1.7223,-1.722 -4.82214,-2.2407 -7.58234,-2.5958 -2.76019,-0.3551 -5.17793,-0.3769 -5.17793,-0.3769 z m 1.07035,2.0802 c 0.72076,0.019 1.8066,0.016 3.85171,0.2793 2.62385,0.3375 5.55541,1.1588 6.42409,2.0274 2.20885,2.2088 2.20883,5.7602 0,7.9691 -2.20883,2.2087 -5.75827,2.2088 -7.96712,0 -0.86867,-0.8687 -1.68987,-3.8003 -2.02742,-6.4241 -0.2631,-2.0451 -0.26228,-3.131 -0.28126,-3.8517 z" style="color:#000000;font-style:normal;font-variant:normal;font-weight:normal;font-stretch:normal;font-size:medium;line-height:normal;font-family:sans-serif;font-variant-ligatures:normal;font-variant-position:normal;font-variant-caps:normal;font-variant-numeric:normal;font-variant-alternates:normal;font-feature-settings:normal;text-indent:0;text-align:start;text-decoration:none;text-decoration-line:none;text-decoration-style:solid;text-decoration-color:#000000;letter-spacing:normal;word-spacing:normal;text-transform:none;writing-mode:lr-tb;direction:ltr;text-orientation:mixed;dominant-baseline:auto;baseline-shift:baseline;text-anchor:start;white-space:normal;shape-padding:0;clip-rule:nonzero;display:inline;overflow:visible;visibility:visible;opacity:1;isolation:auto;mix-blend-mode:normal;color-interpolation:sRGB;color-interpolation-filters:linearRGB;solid-color:#000000;solid-opacity:1;vector-effect:none;fill:#000000;fill-opacity:1;fill-rule:nonzero;stroke:none;stroke-width:1.99999976;stroke-linecap:round;stroke-linejoin:round;stroke-miterlimit:4;stroke-dasharray:none;stroke-dashoffset:0;stroke-opacity:1;paint-order:fill markers stroke;color-rendering:auto;image-rendering:auto;shape-rendering:auto;text-rendering:auto;enable-background:accumulate"/><path d="m 854.99014,2976.3622 c 0,0 -2.41774,0.022 -5.17794,0.3769 -2.76019,0.3552 -5.86003,0.8738 -7.58232,2.5958 -2.97318,2.9733 -2.97317,7.8242 0,10.7974 2.97314,2.9731 7.82414,2.9732 10.79729,0 1.72232,-1.7223 2.24072,-4.8221 2.59581,-7.5823 0.3551,-2.7602 0.37697,-5.178 0.37697,-5.178 a 1.0001394,1.0001394 0 0 0 -1.00981,-1.0098 z m -1.07035,2.0802 c -0.019,0.7207 -0.0182,1.8066 -0.28126,3.8517 -0.33755,2.6238 -1.15874,5.5554 -2.02742,6.4241 -2.20883,2.2088 -5.7583,2.2087 -7.96712,0 -2.20884,-2.2089 -2.20885,-5.7603 0,-7.9691 0.86869,-0.8686 3.80024,-1.6899 6.42408,-2.0274 2.04512,-0.2631 3.13096,-0.2603 3.85172,-0.2793 z" style="color:#000000;font-style:normal;font-variant:normal;font-weight:normal;font-stretch:normal;font-size:medium;line-height:normal;font-family:sans-serif;font-variant-ligatures:normal;font-variant-position:normal;font-variant-caps:normal;font-variant-numeric:normal;font-variant-alternates:normal;font-feature-settings:normal;text-indent:0;text-align:start;text-decoration:none;text-decoration-line:none;text-decoration-style:solid;text-decoration-color:#000000;letter-spacing:normal;word-spacing:normal;text-transform:none;writing-mode:lr-tb;direction:ltr;text-orientation:mixed;dominant-baseline:auto;baseline-shift:baseline;text-anchor:start;white-space:normal;shape-padding:0;clip-rule:nonzero;display:inline;overflow:visible;visibility:visible;opacity:1;isolation:auto;mix-blend-mode:normal;color-interpolation:sRGB;color-interpolation-filters:linearRGB;solid-color:#000000;solid-opacity:1;vector-effect:none;fill:#000000;fill-opacity:1;fill-rule:nonzero;stroke:none;stroke-width:1.99999988;stroke-linecap:round;stroke-linejoin:round;stroke-miterlimit:4;stroke-dasharray:none;stroke-dashoffset:0;stroke-opacity:1;paint-order:fill markers stroke;color-rendering:auto;image-rendering:auto;shape-rendering:auto;text-rendering:auto;enable-background:accumulate"/><path d="m 828.97742,2982.3625 a 1.0001974,1.0001874 0 0 0 -0.41216,1.9006 c 0.76031,0.38 3.3018,2.1294 5.46343,4.4104 2.16162,2.281 3.97108,5.1237 3.97108,7.6746 a 1.0001974,1.0001874 0 1 0 2.0002,0 c 0,-3.4402 -2.18694,-6.5878 -4.51997,-9.0497 -2.33303,-2.4618 -4.78476,-4.2061 -6.02208,-4.8246 a 1.0001974,1.0001874 0 0 0 -0.4805,-0.1113 z" style="color:#000000;font-style:normal;font-variant:normal;font-weight:normal;font-stretch:normal;font-size:medium;line-height:normal;font-family:sans-serif;font-variant-ligatures:normal;font-variant-position:normal;font-variant-caps:normal;font-variant-numeric:normal;font-variant-alternates:normal;font-feature-settings:normal;text-indent:0;text-align:start;text-decoration:none;text-decoration-line:none;text-decoration-style:solid;text-decoration-color:#000000;letter-spacing:normal;word-spacing:normal;text-transform:none;writing-mode:lr-tb;direction:ltr;text-orientation:mixed;dominant-baseline:auto;baseline-shift:baseline;text-anchor:start;white-space:normal;shape-padding:0;clip-rule:nonzero;display:inline;overflow:visible;visibility:visible;opacity:1;isolation:auto;mix-blend-mode:normal;color-interpolation:sRGB;color-interpolation-filters:linearRGB;solid-color:#000000;solid-opacity:1;vector-effect:none;fill:#000000;fill-opacity:1;fill-rule:nonzero;stroke:none;stroke-width:1.99999988;stroke-linecap:round;stroke-linejoin:round;stroke-miterlimit:4;stroke-dasharray:none;stroke-dashoffset:0;stroke-opacity:1;paint-order:fill markers stroke;color-rendering:auto;image-rendering:auto;shape-rendering:auto;text-rendering:auto;enable-background:accumulate"/></g></g><text x="0" y="31.933334" fill="#000000" font-size="10px" font-weight="bold" font-family="'Helvetica Neue', Helvetica, Arial-Unicode, Arial, Sans-serif">Created by P Thanga Vignesh</text><text x="0" y="36.933334" fill="#000000" font-size="5px" font-weight="bold" font-family="'Helvetica Neue', Helvetica, Arial-Unicode, Arial, Sans-serif">from the Noun Project</text></svg>