<svg
    xmlns="http://www.w3.org/2000/svg"
    xmlns:xlink="http://www.w3.org/1999/xlink" version="1.1" x="0px" y="0px" viewBox="0 0 100 125" enable-background="new 0 0 100 100" xml:space="preserve">
    <g>
        <g>
            <path d="M82.159,64.707H17.682c-0.828,0-1.5-0.671-1.5-1.5V16.722c0-0.829,0.672-1.5,1.5-1.5s1.5,0.671,1.5,1.5v44.985h61.478    V16.722c0-0.829,0.672-1.5,1.5-1.5s1.5,0.671,1.5,1.5v46.485C83.659,64.036,82.987,64.707,82.159,64.707z"/>
        </g>
        <g>
            <path d="M89.5,17.625h-79c-0.828,0-1.5-0.671-1.5-1.5s0.672-1.5,1.5-1.5h79c0.828,0,1.5,0.671,1.5,1.5S90.328,17.625,89.5,17.625z    "/>
        </g>
        <g>
            <path d="M49.122,84.337c-0.828,0-1.5-0.671-1.5-1.5V63.632c0-0.829,0.672-1.5,1.5-1.5s1.5,0.671,1.5,1.5v19.206    C50.622,83.666,49.95,84.337,49.122,84.337z"/>
        </g>
        <g>
            <path d="M41.661,85.375c-0.384,0-0.768-0.146-1.061-0.439c-0.586-0.585-0.586-1.536,0-2.121l6.783-6.783    c0.586-0.586,1.535-0.586,2.121,0c0.586,0.585,0.586,1.536,0,2.121l-6.783,6.783C42.429,85.228,42.045,85.375,41.661,85.375z"/>
        </g>
        <g>
            <path d="M56.463,85.375c-0.384,0-0.768-0.146-1.061-0.439l-6.782-6.783c-0.586-0.586-0.586-1.536,0-2.121    c0.586-0.586,1.535-0.586,2.121,0l6.782,6.783c0.586,0.586,0.586,1.536,0,2.121C57.23,85.228,56.847,85.375,56.463,85.375z"/>
        </g>
        <g>
            <path d="M27.576,48.322c-0.384,0-0.768-0.146-1.061-0.439c-0.586-0.586-0.586-1.536,0-2.121l15.217-15.216    c0.281-0.281,0.663-0.439,1.061-0.439l0,0c0.397,0,0.779,0.158,1.061,0.439l10.961,10.962l14.9-14.899    c0.586-0.586,1.535-0.586,2.121,0s0.586,1.536,0,2.121l-15.961,15.96c-0.281,0.281-0.663,0.439-1.061,0.439l0,0    c-0.397,0-0.779-0.158-1.061-0.439L42.793,33.727L28.637,47.882C28.344,48.175,27.96,48.322,27.576,48.322z"/>
        </g>
        <g>
            <circle cx="42.923" cy="32.511" r="3.112"/>
        </g>
        <g>
            <circle cx="26.804" cy="47.034" r="3.112"/>
        </g>
        <g>
            <circle cx="54.494" cy="43.044" r="3.112"/>
        </g>
        <g>
            <circle cx="71.331" cy="27.483" r="3.112"/>
        </g>
    </g>
</svg>