<svg xmlns="http://www.w3.org/2000/svg" xmlns:xlink="http://www.w3.org/1999/xlink" version="1.1" x="0px" y="0px" viewBox="0 0 64 80" style="enable-background:new 0 0 64 64;" xml:space="preserve">
	<g>
		<text transform="matrix(1 0 0 1 -362.7197 -213)">
			<tspan x="0" y="0" style="" font-family="'Montserrat-Regular'" font-size="10px">
				c
			</tspan>
			<tspan x="6.95" y="0" style="" font-family="'Montserrat-Regular'" font-size="10px">
				ar
			</tspan>
			<tspan x="-3.475" y="12" style="" font-family="'Montserrat-Regular'" font-size="10px">
				l
			</tspan>
			<tspan x="1.765" y="12" style="" font-family="'Montserrat-Regular'" font-size="10px">
				o
			</tspan>
			<tspan x="9.715" y="12" style="" font-family="'Montserrat-Regular'" font-size="10px">
				an
			</tspan>
		</text>
		<text transform="matrix(1 0 0 1 -288.6499 -213)">
			<tspan x="0" y="0" style="" font-family="'Montserrat-Regular'" font-size="10px">
				a
			</tspan>
			<tspan x="7.09" y="0" style="" font-family="'Montserrat-Regular'" font-size="10px">
				c
			</tspan>
			<tspan x="13.92" y="0" style="" font-family="'Montserrat-Regular'" font-size="10px">
				cep
			</tspan>
			<tspan x="34.15" y="0" style="" font-family="'Montserrat-Regular'" font-size="10px">
				t
			</tspan>
			<tspan x="39.15" y="0" style="" font-family="'Montserrat-Regular'" font-size="10px">
				able
			</tspan>
		</text>
		<text transform="matrix(1 0 0 1 -287.7998 -117)">
			<tspan x="0" y="0" style="" font-family="'Montserrat-Regular'" font-size="10px">
				m
			</tspan>
			<tspan x="9.39" y="0" style="" font-family="'Montserrat-Regular'" font-size="10px">
				o
			</tspan>
			<tspan x="17.4" y="0" style="" font-family="'Montserrat-Regular'" font-size="10px">
				ti
			</tspan>
			<tspan x="26.03" y="0" style="" font-family="'Montserrat-Regular'" font-size="10px">
				v
			</tspan>
			<tspan x="32.32" y="0" style="" font-family="'Montserrat-Regular'" font-size="10px">
				a
			</tspan>
			<tspan x="38.91" y="0" style="" font-family="'Montserrat-Regular'" font-size="10px">
				tion
			</tspan>
		</text>
		<text transform="matrix(1 0 0 1 -189.105 -213)">
			<tspan x="0" y="0" style="" font-family="'Montserrat-Regular'" font-size="10px">
				sign
			</tspan>
			<tspan x="24.57" y="0" style="" font-family="'Montserrat-Regular'" font-size="10px">
				a
			</tspan>
			<tspan x="31.16" y="0" style="" font-family="'Montserrat-Regular'" font-size="10px">
				ture
			</tspan>
		</text>
		<text transform="matrix(1 0 0 1 -81.7549 -213)" style="" font-family="'Montserrat-Regular'" font-size="10px">
			check
		</text>
		<text transform="matrix(1 0 0 1 3.4702 -213)">
			<tspan x="0" y="0" style="" font-family="'Montserrat-Regular'" font-size="10px">
				appr
			</tspan>
			<tspan x="27.91" y="0" style="" font-family="'Montserrat-Regular'" font-size="10px">
				o
			</tspan>
			<tspan x="35.94" y="0" style="" font-family="'Montserrat-Regular'" font-size="10px">
				ved
			</tspan>
		</text>
		<text transform="matrix(1 0 0 1 98.9204 -213)">
			<tspan x="0" y="0" style="" font-family="'Montserrat-Regular'" font-size="10px">
				c
			</tspan>
			<tspan x="6.95" y="0" style="" font-family="'Montserrat-Regular'" font-size="10px">
				alcu
			</tspan>
			<tspan x="34.06" y="0" style="" font-family="'Montserrat-Regular'" font-size="10px">
				l
			</tspan>
			<tspan x="39.369" y="0" style="" font-family="'Montserrat-Regular'" font-size="10px">
				a
			</tspan>
			<tspan x="45.959" y="0" style="" font-family="'Montserrat-Regular'" font-size="10px">
				te
			</tspan>
		</text>
		<text transform="matrix(1 0 0 1 -380.1699 -117)">
			<tspan x="0" y="0" style="" font-family="'Montserrat-Regular'" font-size="10px">
				s
			</tspan>
			<tspan x="6.16" y="0" style="" font-family="'Montserrat-Regular'" font-size="10px">
				t
			</tspan>
			<tspan x="11.16" y="0" style="" font-family="'Montserrat-Regular'" font-size="10px">
				an
			</tspan>
			<tspan x="26.36" y="0" style="" font-family="'Montserrat-Regular'" font-size="10px">
				d
			</tspan>
			<tspan x="34.02" y="0" style="" font-family="'Montserrat-Regular'" font-size="10px">
				ard
			</tspan>
		</text>
		<text transform="matrix(1 0 0 1 -182.415 -117)">
			<tspan x="0" y="0" style="" font-family="'Montserrat-Regular'" font-size="10px">
				p
			</tspan>
			<tspan x="6.3" y="0" style="" font-family="'Montserrat-Regular'" font-size="10px">
				a
			</tspan>
			<tspan x="13.49" y="0" style="" font-family="'Montserrat-Regular'" font-size="10px">
				ssion
			</tspan>
		</text>
		<text transform="matrix(1 0 0 1 -91.7695 -117)">
			<tspan x="0" y="0" style="" font-family="'Montserrat-Regular'" font-size="10px">
				c
			</tspan>
			<tspan x="6.83" y="0" style="" font-family="'Montserrat-Regular'" font-size="10px">
				ontr
			</tspan>
			<tspan x="35.79" y="0" style="" font-family="'Montserrat-Regular'" font-size="10px">
				a
			</tspan>
			<tspan x="42.88" y="0" style="" font-family="'Montserrat-Regular'" font-size="10px">
				ct
			</tspan>
		</text>
		<text transform="matrix(1 0 0 1 6.4253 -117)">
			<tspan x="0" y="0" style="" font-family="'Montserrat-Regular'" font-size="10px">
				w
			</tspan>
			<tspan x="10.32" y="0" style="" font-family="'Montserrat-Regular'" font-size="10px">
				orking
			</tspan>
			<tspan x="9.255" y="12" style="" font-family="'Montserrat-Regular'" font-size="10px">
				r
			</tspan>
			<tspan x="16.485" y="12" style="" font-family="'Montserrat-Regular'" font-size="10px">
				o
			</tspan>
			<tspan x="24.385" y="12" style="" font-family="'Montserrat-Regular'" font-size="10px">
				om
			</tspan>
		</text>
		<text transform="matrix(1 0 0 1 104.9653 -117)">
			<tspan x="0" y="0" style="" font-family="'Montserrat-Regular'" font-size="10px">
				re
			</tspan>
			<tspan x="13.76" y="0" style="" font-family="'Montserrat-Regular'" font-size="10px">
				w
			</tspan>
			<tspan x="23.75" y="0" style="" font-family="'Montserrat-Regular'" font-size="10px">
				ard
			</tspan>
		</text>
		<text transform="matrix(1 0 0 1 -389.4497 -21)" style="" font-family="'Montserrat-Regular'" font-size="10px">
			appointment
		</text>
		<text transform="matrix(1 0 0 1 -263.4951 -21)">
			<tspan x="0" y="0" style="" font-family="'Montserrat-Regular'" font-size="10px">
				Q
			</tspan>
			<tspan x="8" y="0" style="" font-family="'Montserrat-Regular'" font-size="10px">
				C
			</tspan>
		</text>
		<text transform="matrix(1 0 0 1 -177.5996 -21)" style="" font-family="'Montserrat-Regular'" font-size="10px">
			trend
		</text>
		<text transform="matrix(1 0 0 1 -88.5347 -21)">
			<tspan x="0" y="0" style="" font-family="'Montserrat-Regular'" font-size="10px">
				risk and
			</tspan>
			<tspan x="1.5" y="12" style="" font-family="'Montserrat-Regular'" font-size="10px">
				re
			</tspan>
			<tspan x="15.26" y="12" style="" font-family="'Montserrat-Regular'" font-size="10px">
				w
			</tspan>
			<tspan x="25.25" y="12" style="" font-family="'Montserrat-Regular'" font-size="10px">
				ard
			</tspan>
		</text>
		<text transform="matrix(1 0 0 1 7.5405 -21)">
			<tspan x="0" y="0" style="" font-family="'Montserrat-Regular'" font-size="10px">
				p
			</tspan>
			<tspan x="6.71" y="0" style="" font-family="'Montserrat-Regular'" font-size="10px">
				l
			</tspan>
			<tspan x="12.02" y="0" style="" font-family="'Montserrat-Regular'" font-size="10px">
				anner
			</tspan>
		</text>
		<text transform="matrix(1 0 0 1 103.6504 -21)">
			<tspan x="0" y="0" style="" font-family="'Montserrat-Regular'" font-size="10px">
				c
			</tspan>
			<tspan x="6.83" y="0" style="" font-family="'Montserrat-Regular'" font-size="10px">
				ontent
			</tspan>
			<tspan x="-6.43" y="12" style="" font-family="'Montserrat-Regular'" font-size="10px">
				marketing
			</tspan>
		</text>
		<text transform="matrix(1 0 0 1 -364.2749 75)">
			<tspan x="0" y="0" style="" font-family="'Montserrat-Regular'" font-size="10px">
				time
			</tspan>
			<tspan x="-25.35" y="12" style="" font-family="'Montserrat-Regular'" font-size="10px">
				man
			</tspan>
			<tspan x="-0.76" y="12" style="" font-family="'Montserrat-Regular'" font-size="10px">
				a
			</tspan>
			<tspan x="6.33" y="12" style="" font-family="'Montserrat-Regular'" font-size="10px">
				gement
			</tspan>
		</text>
		<text transform="matrix(1 0 0 1 -268.4248 75)" style="" font-family="'Montserrat-Regular'" font-size="10px">
			mail
		</text>
		<text transform="matrix(1 0 0 1 -184.7295 75)" style="" font-family="'Montserrat-Regular'" font-size="10px">
			security
		</text>
		<text transform="matrix(1 0 0 1 -83.1396 75)">
			<tspan x="0" y="0" style="" font-family="'Montserrat-Regular'" font-size="10px">
				money
			</tspan>
			<tspan x="-7.71" y="12" style="" font-family="'Montserrat-Regular'" font-size="10px">
				transfer
			</tspan>
		</text>
		<!-- <text transform="matrix(1 0 0 1 8.585 75)">
			<tspan x="0" y="0" style="" font-family="'Montserrat-Regular'" font-size="10px">
				gr
			</tspan>
			<tspan x="14.74" y="0" style="" font-family="'Montserrat-Regular'" font-size="10px">
				o
			</tspan>
			<tspan x="22.77" y="0" style="" font-family="'Montserrat-Regular'" font-size="10px">
				wth
			</tspan>
		</text>
		<text transform="matrix(1 0 0 1 106.4253 75)">
			<tspan x="0" y="0" style="" font-family="'Montserrat-Regular'" font-size="10px">
				market
			</tspan>
			<tspan x="-6.355" y="12" style="" font-family="'Montserrat-Regular'" font-size="10px">
				research
			</tspan>
		</text>
		<text transform="matrix(1 0 0 1 -391.0547 171)" style="" font-family="'Montserrat-Regular'" font-size="10px">
			professional
		</text>
		<text transform="matrix(1 0 0 1 -266.8047 171)" style="" font-family="'Montserrat-Regular'" font-size="10px">
			R&amp;D
		</text>
		<text transform="matrix(1 0 0 1 -175.5 171)">
			<tspan x="0" y="0" style="" font-family="'Montserrat-Regular'" font-size="10px">
				s
			</tspan>
			<tspan x="6.09" y="0" style="" font-family="'Montserrat-Regular'" font-size="10px">
				afty
			</tspan>
		</text>
		<text transform="matrix(1 0 0 1 -89.7749 171)">
			<tspan x="0" y="0" style="" font-family="'Montserrat-Regular'" font-size="10px">
				l
			</tspan>
			<tspan x="5.24" y="0" style="" font-family="'Montserrat-Regular'" font-size="10px">
				o
			</tspan>
			<tspan x="13.14" y="0" style="" font-family="'Montserrat-Regular'" font-size="10px">
				gistics
			</tspan>
		</text>
		<text transform="matrix(1 0 0 1 -0.7744 171)" style="" font-family="'Montserrat-Regular'" font-size="10px">
			investment
		</text>
		<text transform="matrix(1 0 0 1 114.02 171)">
			<tspan x="0" y="0" style="" font-family="'Montserrat-Regular'" font-size="10px">
				g
			</tspan>
			<tspan x="7.51" y="0" style="" font-family="'Montserrat-Regular'" font-size="10px">
				o
			</tspan>
			<tspan x="15.46" y="0" style="" font-family="'Montserrat-Regular'" font-size="10px">
				al
			</tspan>
		</text>
		<text transform="matrix(1 0 0 1 -375.2646 267)" style="" font-family="'Montserrat-Regular'" font-size="10px">
			meeting
		</text>
		<text transform="matrix(1 0 0 1 -275.3647 267)">
			<tspan x="0" y="0" style="" font-family="'Montserrat-Regular'" font-size="10px">
				online
			</tspan>
			<tspan x="2.73" y="12" style="" font-family="'Montserrat-Regular'" font-size="10px">
				s
			</tspan>
			<tspan x="8.89" y="12" style="" font-family="'Montserrat-Regular'" font-size="10px">
				t
			</tspan>
			<tspan x="14.12" y="12" style="" font-family="'Montserrat-Regular'" font-size="10px">
				ore
			</tspan>
		</text>
		<text transform="matrix(1 0 0 1 -196.5244 267)" style="" font-family="'Montserrat-Regular'" font-size="10px">
			opportunity
		</text>
		<text transform="matrix(1 0 0 1 -94.3149 267)" style="" font-family="'Montserrat-Regular'" font-size="10px">
			insurance
		</text>
		<text transform="matrix(1 0 0 1 3.6802 267)" style="" font-family="'Montserrat-Regular'" font-size="10px">
			specialist
		</text>
		<text transform="matrix(1 0 0 1 92.6006 267)" style="" font-family="'Montserrat-Regular'" font-size="10px">
			centralized
		</text> -->
	</g>
	<path d="M18,51c0-0.553-0.447-1-1-1h-6c-0.553,0-1,0.447-1,1v10c0,0.553,0.447,1,1,1h6c0.553,0,1-0.447,1-1V51z M16,60h-4v-8h4V60z" />
	<path d="M30,62c0.553,0,1-0.447,1-1V41c0-0.553-0.447-1-1-1h-6c-0.553,0-1,0.447-1,1v20c0,0.553,0.447,1,1,1H30z M25,42h4v18h-4V42z  " />
	<path d="M42,62c0.553,0,1-0.447,1-1V31c0-0.553-0.447-1-1-1h-6c-0.553,0-1,0.447-1,1v30c0,0.553,0.447,1,1,1H42z M37,32h4v28h-4V32z  " />
	<path d="M55,61V21c0-0.553-0.447-1-1-1h-6c-0.553,0-1,0.447-1,1v40c0,0.553,0.447,1,1,1h6C54.553,62,55,61.553,55,61z M53,60h-4V22  h4V60z" />
	<path d="M17,48h3c0.553,0,1-0.447,1-1v-9h1h4h6c0.553,0,1-0.447,1-1v-9h11c0.553,0,1-0.447,1-1v-9h11c0.553,0,1-0.447,1-1V8h4  c0.425,0,0.803-0.269,0.943-0.669s0.013-0.847-0.318-1.112l-5-4c-0.365-0.291-0.885-0.291-1.25,0l-5,4  c-0.331,0.266-0.459,0.712-0.318,1.112S50.575,8,51,8h4v8H44c-0.553,0-1,0.447-1,1v9H32c-0.553,0-1,0.447-1,1v9h-4v-7  c0-2.757-2.243-5-5-5h-4v-3.586l8.207-8.207c0.623-0.622,0.954-1.483,0.91-2.363c-0.044-0.879-0.461-1.704-1.146-2.265  c-1.223-1-3.097-0.867-4.264,0.3l-4.2,4.2c-0.188-0.344-0.43-0.658-0.712-0.935C18.124,10.244,19,8.722,19,7c0-2.757-2.243-5-5-5  S9,4.243,9,7c0,1.737,0.893,3.267,2.241,4.164C10.48,11.924,10,12.986,10,14.17V25c0,1.627,0.793,3.061,2,3.974V46H2v2h11H17z   M56,4.28L58.149,6h-4.299L56,4.28z M20,36c-0.553,0-1,0.447-1,1v9h-1V30h3v6H20z M22,26c1.654,0,3,1.346,3,3v7h-2v-7  c0-0.553-0.447-1-1-1h-4v-2H22z M17.707,14.707l5.414-5.414c0.451-0.451,1.147-0.524,1.584-0.165  c0.252,0.206,0.399,0.495,0.415,0.815c0.016,0.321-0.101,0.622-0.327,0.85l-8.5,8.5C16.105,19.48,16,19.734,16,20v5v3h-1  c-0.247,0-0.491-0.036-0.732-0.101c-0.026-0.007-0.051-0.017-0.077-0.024c-0.234-0.07-0.464-0.164-0.688-0.294  c-0.008-0.005-0.018-0.006-0.026-0.011C12.597,27.047,12,26.096,12,25V14.17c0-1.141,0.849-2.112,1.891-2.167  C13.927,12.001,13.963,12,13.999,12c0.516,0,1.002,0.192,1.378,0.55C15.778,12.932,16,13.446,16,14c0,0.404,0.243,0.77,0.617,0.924  C16.991,15.079,17.42,14.993,17.707,14.707z M14,4c1.654,0,3,1.346,3,3s-1.346,3-3,3s-3-1.346-3-3S12.346,4,14,4z M14,29.899  C14.323,29.965,14.658,30,15,30h1v16h-2V29.899z" />
	<rect x="44" y="2" width="2" height="2" />
	<rect x="42" y="4" width="2" height="2" />
	<rect x="46" y="4" width="2" height="2" />
	<rect x="44" y="6" width="2" height="2" />
	<rect x="33" y="8" width="2" height="2" />
	<rect x="31" y="10" width="2" height="2" />
	<rect x="35" y="10" width="2" height="2" />
	<rect x="33" y="12" width="2" height="2" />

</svg>
