<svg width="13" height="13" viewBox="0 0 13 13" fill="none" xmlns="http://www.w3.org/2000/svg">
<path fill-rule="evenodd" clip-rule="evenodd" d="M6.5 0C4.735 0 4.5135 0.00750003 3.82 0.039C3.128 0.0705 2.6555 0.1805 2.242 0.341C1.80836 0.504323 1.41556 0.760273 1.091 1.091C0.760212 1.41571 0.504259 1.80868 0.341 2.2425C0.1805 2.6555 0.071 3.128 0.039 3.82C0.00750003 4.5135 0 4.735 0 6.5C0 8.265 0.00750003 8.4865 0.039 9.18C0.0705 9.872 0.1805 10.3445 0.341 10.7575C0.5075 11.185 0.7295 11.5475 1.091 11.909C1.41556 12.2397 1.80836 12.4957 2.242 12.659C2.6555 12.819 3.128 12.929 3.82 12.961C4.5135 12.9925 4.735 13 6.5 13C8.265 13 8.4865 12.9925 9.18 12.961C9.872 12.9295 10.3445 12.8195 10.7575 12.659C11.1913 12.4958 11.5843 12.2398 11.909 11.909C12.2398 11.5843 12.4957 11.1913 12.659 10.7575C12.819 10.3445 12.929 9.872 12.961 9.18C12.9925 8.4865 13 8.265 13 6.5C13 4.735 12.9925 4.5135 12.961 3.82C12.9295 3.128 12.8195 2.6555 12.6585 2.2425C12.4954 1.80872 12.2396 1.41575 11.909 1.091C11.5843 0.7602 11.1913 0.504245 10.7575 0.341C10.3445 0.181 9.872 0.071 9.18 0.039C8.4865 0.00750003 8.265 0 6.5 0ZM6.5 1.171C8.2355 1.171 8.441 1.178 9.1265 1.209C9.76 1.238 10.1045 1.344 10.3335 1.433C10.637 1.551 10.8535 1.6915 11.081 1.919C11.3085 2.1465 11.449 2.363 11.567 2.6665C11.656 2.8955 11.762 3.2395 11.791 3.8735C11.822 4.5585 11.829 4.7645 11.829 6.5C11.829 8.2355 11.822 8.441 11.791 9.1265C11.762 9.7605 11.656 10.1045 11.567 10.3335C11.4629 10.6158 11.2968 10.8713 11.081 11.081C10.8713 11.2968 10.6159 11.4629 10.3335 11.567C10.1045 11.656 9.76 11.762 9.1265 11.791C8.4415 11.822 8.2355 11.829 6.5 11.829C4.7645 11.829 4.5585 11.822 3.8735 11.791C3.2395 11.762 2.8955 11.656 2.6665 11.567C2.38415 11.4629 2.12872 11.2968 1.919 11.081C1.70322 10.8712 1.53715 10.6158 1.433 10.3335C1.344 10.1045 1.238 9.7605 1.209 9.1265C1.178 8.4415 1.171 8.2355 1.171 6.5C1.171 4.7645 1.178 4.559 1.209 3.8735C1.238 3.2395 1.344 2.8955 1.433 2.6665C1.551 2.363 1.6915 2.1465 1.919 1.919C2.12873 1.70319 2.38415 1.53712 2.6665 1.433C2.8955 1.344 3.2395 1.238 3.8735 1.209C4.5585 1.178 4.7645 1.171 6.5 1.171Z" fill="#778b99"/>
<path fill-rule="evenodd" clip-rule="evenodd" d="M6.5 3C5.57174 3 4.6815 3.36875 4.02513 4.02513C3.36875 4.6815 3 5.57174 3 6.5C3 7.42826 3.36875 8.3185 4.02513 8.97487C4.6815 9.63125 5.57174 10 6.5 10C7.42826 10 8.3185 9.63125 8.97487 8.97487C9.63125 8.3185 10 7.42826 10 6.5C10 5.57174 9.63125 4.6815 8.97487 4.02513C8.3185 3.36875 7.42826 3 6.5 3ZM6.5 8.75C5.90326 8.75 5.33097 8.51295 4.90901 8.09099C4.48705 7.66903 4.25 7.09674 4.25 6.5C4.25 5.90326 4.48705 5.33097 4.90901 4.90901C5.33097 4.48705 5.90326 4.25 6.5 4.25C7.09674 4.25 7.66903 4.48705 8.09099 4.90901C8.51295 5.33097 8.75 5.90326 8.75 6.5C8.75 7.09674 8.51295 7.66903 8.09099 8.09099C7.66903 8.51295 7.09674 8.75 6.5 8.75ZM10.85 3.05C10.85 3.15506 10.8293 3.25909 10.7891 3.35615C10.7489 3.45321 10.69 3.5414 10.6157 3.61569C10.5414 3.68997 10.4532 3.7489 10.3561 3.7891C10.2591 3.82931 10.1551 3.85 10.05 3.85C9.94494 3.85 9.84091 3.82931 9.74385 3.7891C9.64679 3.7489 9.5586 3.68997 9.48431 3.61569C9.41003 3.5414 9.3511 3.45321 9.3109 3.35615C9.27069 3.25909 9.25 3.15506 9.25 3.05C9.25 2.83783 9.33429 2.63434 9.48431 2.48431C9.63434 2.33429 9.83783 2.25 10.05 2.25C10.2622 2.25 10.4657 2.33429 10.6157 2.48431C10.7657 2.63434 10.85 2.83783 10.85 3.05Z" fill="#778b99"/>
</svg>
