<?xml version="1.0" encoding="UTF-8"?>
<!DOCTYPE svg PUBLIC "-//W3C//DTD SVG 1.1//EN" "http://www.w3.org/Graphics/SVG/1.1/DTD/svg11.dtd">
<!-- Creator: CorelDRAW X7 -->
<svg xmlns="http://www.w3.org/2000/svg" xml:space="preserve" width="8.5in" height="11in" version="1.1" style="shape-rendering:geometricPrecision; text-rendering:geometricPrecision; image-rendering:optimizeQuality; fill-rule:evenodd; clip-rule:evenodd"
viewBox="0 0 8500 11000"
 xmlns:xlink="http://www.w3.org/1999/xlink">
 <defs>
  <style type="text/css">
   <![CDATA[
    .fil0 {fill:#003399}
    .fil2 {fill:red}
    .fil1 {fill:url(#id0)}
   ]]>
  </style>
  <linearGradient id="id0" gradientUnits="userSpaceOnUse" x1="4241" y1="5658.52" x2="4241" y2="3752.52">
   <stop offset="0" style="stop-opacity:1; stop-color:#990000"/>
   <stop offset="1" style="stop-opacity:1; stop-color:red"/>
  </linearGradient>
 </defs>
 <g id="Layer_x0020_1">
  <metadata id="CorelCorpID_0Corel-Layer"/>
  <g id="_2318096466704">
   <path class="fil0" d="M4175 3652c55,-11 199,3 248,12 17,3 37,7 56,11 50,11 63,19 105,28l139 58c28,18 54,30 83,46 35,20 119,85 150,114 31,29 108,105 129,137l54 80c8,14 17,27 26,41 14,19 55,109 65,131 36,82 51,175 66,262 27,150 -6,409 -82,559 -8,15 -13,31 -20,46 -43,87 -53,90 -102,162 -34,48 -48,62 -91,105l-69 65c-15,11 -21,17 -33,29l-79 55c-84,49 -120,73 -223,108 -69,23 -197,54 -268,56 -92,2 -164,6 -248,-13 -40,-9 -71,-11 -109,-22 -37,-11 -65,-22 -99,-32 -29,-9 -67,-26 -92,-41 -12,-7 -31,-16 -44,-23 -7,-5 -12,-6 -20,-11 -8,-5 -13,-8 -20,-12 -83,-47 -151,-112 -218,-179 -73,-73 -56,-71 -89,-111 -25,-31 -55,-84 -76,-120l-42 -91c-49,-124 -56,-180 -74,-320 -5,-41 -1,-89 -1,-132 0,-31 23,-190 37,-231 6,-19 8,-33 15,-51 18,-46 15,-47 39,-92 6,-13 12,-30 20,-46 14,-30 29,-55 48,-82l53 -80c34,-58 141,-152 195,-198l38 -28c40,-30 119,-76 168,-95 23,-10 69,-33 94,-40 84,-25 126,-35 214,-49 18,-3 40,-3 57,-6zm-23 2415c79,0 150,5 230,-5l112 -14c79,-16 150,-36 223,-63 30,-11 65,-22 91,-35l58 -28c38,-20 68,-40 106,-59 40,-21 84,-62 121,-87 55,-38 176,-151 211,-206 8,-14 10,-12 19,-24 56,-64 127,-179 158,-254 45,-108 83,-199 105,-315 25,-132 27,-164 27,-307 0,-101 -15,-199 -38,-293 -10,-43 -24,-84 -39,-126 -8,-21 -10,-38 -22,-60 -29,-55 -49,-115 -82,-169 -17,-28 -46,-78 -66,-103 -11,-15 -25,-31 -36,-47 -12,-18 -21,-30 -36,-46 -74,-85 -164,-179 -261,-238 -19,-11 -31,-22 -48,-34 -18,-12 -35,-21 -52,-30 -20,-12 -34,-19 -53,-30 -19,-12 -38,-17 -58,-28 -14,-8 -41,-20 -57,-26 -10,-4 -20,-6 -30,-9 -14,-5 -18,-9 -30,-13 -124,-41 -210,-57 -344,-72 -152,-17 -351,4 -494,50 -30,10 -62,17 -91,30 -27,13 -56,18 -93,37 -112,57 -161,86 -259,157 -17,12 -28,25 -45,37 -33,23 -62,51 -90,79 -14,14 -26,29 -40,43 -20,20 -41,41 -56,65 -8,12 -10,13 -19,24 -62,77 -83,116 -131,199l-65 143c-19,53 -39,106 -52,160 -21,85 -40,210 -39,296 0,135 10,249 40,372l50 158c4,10 9,19 13,30 8,21 17,37 25,58 14,36 36,75 57,108 6,11 9,17 16,27l33 50c13,26 34,47 53,73l77 91c27,27 53,57 83,82 14,11 29,26 44,39 17,16 30,22 48,37 67,59 231,146 319,181 104,42 219,74 330,87l77 8zm-1610 996l153 0c26,0 21,-5 34,-46 8,-23 12,-44 17,-67l88 -327c8,-26 13,-45 13,-75 9,4 11,1 15,27l110 432c17,71 -7,56 178,56 22,0 22,-28 36,-77l46 -181c30,-107 67,-268 97,-366 4,-13 27,-82 17,-92l-5 -2c-5,-1 -4,-1 -10,-2 -5,0 -14,0 -19,0 -30,1 -96,-2 -115,2 -7,14 -69,299 -74,339 -5,43 -23,94 -29,135 -3,24 -3,54 -18,67 -1,-1 -10,-62 -12,-72 -5,-25 -11,-47 -18,-69 -13,-46 -19,-93 -32,-141l-43 -172c-22,-110 2,-89 -178,-89 -23,0 -15,13 -29,57l-57 206c-11,43 -26,90 -37,136l-34 143c-1,0 -2,-2 -3,-2 0,1 -7,-1 -10,-26 -1,-13 -2,-24 -4,-38 -6,-38 -21,-84 -30,-142l-16 -71c-6,-22 -8,-46 -15,-69 -7,-24 -9,-42 -15,-71l-16 -70c-10,-67 16,-53 -162,-53 -24,0 -20,11 -14,29 5,17 6,29 13,47l11 46c4,18 8,31 12,47l75 280c8,32 13,63 22,95 5,17 10,30 14,46l24 93c3,16 4,37 20,37zm4992 -3c18,8 127,6 148,0 6,-56 -6,-479 6,-492 3,-4 -5,-9 8,4 5,5 8,9 12,16 8,13 11,23 19,35 8,13 13,17 22,30 8,13 12,21 21,34 15,22 30,41 43,62 8,13 10,20 20,32l147 226c49,71 19,56 185,56 22,0 12,-66 12,-84l0 -570c0,-72 8,-65 -31,-65 -32,-1 -82,-3 -112,0 -13,20 -4,59 -4,100l0 260c0,25 -3,40 -4,62 0,26 7,36 2,63 -23,-14 -68,-98 -86,-125 -20,-30 -19,-22 -43,-64 -13,-24 -28,-43 -45,-66l-84 -131c-73,-105 -38,-100 -115,-100 -152,1 -122,-16 -122,78 0,92 -4,628 1,639zm-2824 -408c0,-14 15,-64 21,-76l38 -56c13,-14 10,-11 26,-21 11,-7 16,-13 30,-18 40,-17 116,-15 154,8 89,54 94,156 94,246 0,84 -58,202 -171,202 -65,0 -101,-8 -145,-61 -55,-67 -47,-142 -47,-224zm-173 59c0,74 17,144 55,205 22,35 37,59 74,86 9,7 14,12 22,18 106,66 257,74 370,16 30,-15 69,-46 92,-69 12,-13 21,-32 31,-47 14,-22 18,-27 28,-51 36,-91 31,-117 31,-217 0,-18 -14,-85 -23,-106 -6,-13 -8,-19 -13,-31 -9,-18 -34,-60 -52,-78 -6,-6 -7,-5 -12,-11 -81,-85 -170,-93 -277,-93 -95,1 -179,53 -235,116 -63,69 -91,169 -91,262zm2340 -43c0,-25 13,-58 19,-79 35,-121 208,-169 296,-59 27,33 51,97 51,142 0,69 -1,155 -52,207 -35,36 -64,59 -133,58 -69,-2 -96,-25 -129,-61 -53,-57 -52,-133 -52,-208zm132 -332c-21,5 -26,-1 -72,15 -102,35 -190,134 -213,238 -5,20 -14,57 -14,75 -3,92 1,176 55,258 82,124 203,165 348,151 22,-2 47,-10 68,-18 15,-5 20,-5 32,-11 30,-16 55,-31 83,-56 88,-78 126,-218 113,-334 -3,-28 -9,-49 -13,-76 -7,-45 -35,-85 -60,-121 -30,-46 -99,-92 -160,-111 -44,-14 -117,-20 -167,-10zm-6152 407c0,45 -30,112 -57,143 -64,70 -202,78 -271,-27 -27,-42 -39,-95 -39,-159 0,-253 228,-276 312,-177 12,14 30,45 35,63 25,99 20,40 20,157zm-534 -67c0,74 -2,121 27,192 21,51 61,108 103,137 39,28 55,39 103,54 62,20 100,14 163,14 63,0 130,-41 175,-73 20,-14 28,-26 43,-43 16,-18 23,-24 35,-48 38,-80 23,-37 44,-125 16,-67 8,-165 -14,-229 -7,-21 -18,-40 -25,-57 -39,-87 -160,-165 -261,-165 -113,0 -125,-4 -232,49 -18,9 -53,44 -67,58 -17,18 -21,29 -35,47 -26,35 -38,76 -48,118 -5,17 -11,52 -11,71zm5932 80c2,-2 8,-3 14,-3 63,0 137,-11 175,34 51,62 3,160 -81,160 -82,0 -110,10 -110,-20l2 -171zm-2 -276c0,-14 3,-20 16,-20 48,0 96,-6 134,19 34,22 30,42 30,79 0,37 -40,75 -78,75 -21,0 -83,3 -100,-2 -4,-30 -2,-116 -2,-151zm-156 -118l0 697c30,10 252,4 301,4 10,0 78,-13 88,-16 24,-8 51,-25 70,-37 22,-14 39,-33 49,-56 46,-96 34,-207 -68,-256 -24,-12 -32,-11 -57,-18 9,-32 105,-39 118,-135 10,-76 -8,-135 -82,-171 -35,-17 -93,-31 -137,-31l-263 0c-17,0 -19,2 -19,19zm-469 711c141,0 110,10 238,-22 30,-7 69,-23 84,-41l0 -326c1,-18 4,-31 -15,-31l-263 0c-32,0 -22,33 -22,105 0,31 18,23 65,22 34,-1 57,-3 78,10l-1 112c1,15 5,14 -5,23 -22,24 -133,17 -178,2 -40,-14 -87,-65 -105,-111 -28,-72 -25,-170 10,-235 71,-130 230,-138 359,-91 55,20 47,54 47,-108 0,-27 -8,-24 -69,-38 -33,-7 -61,-11 -97,-11 -115,1 -161,-2 -263,56l-86 72c-7,9 -5,7 -11,16 -4,7 -7,8 -12,16 -81,122 -86,297 -17,419 6,10 13,20 21,30 35,42 57,67 118,94 14,7 21,12 38,17 20,6 65,20 86,20zm-3379 -725c-7,-7 -7,-5 -33,-5l-99 0c-20,3 -7,-1 -13,5 -14,15 -7,306 -7,348 0,68 5,109 -14,165 -12,32 -15,33 -38,53 -14,12 -9,10 -32,16 -72,17 -139,8 -173,-67 -41,-93 4,-460 -20,-518 -17,-4 -110,-2 -134,-2 -31,0 -23,29 -23,97 0,77 -2,329 5,387 5,40 12,71 28,102 19,38 19,50 54,79 76,61 102,58 198,66 91,8 173,-20 236,-84 90,-91 73,-270 73,-389l0 -228c0,-20 3,-17 -8,-25zm1286 432c-16,0 -15,-15 -11,-28l63 -185c10,-26 5,-52 23,-76 10,10 10,20 15,37l36 112c5,14 6,25 11,40 45,124 53,100 -137,100zm-18 -432l-110 310c-4,18 -11,29 -16,46l-24 64c-3,9 -4,11 -8,22 -17,53 -96,243 -95,270 17,4 122,5 150,4 34,-1 18,-23 37,-67 6,-14 9,-22 14,-37 22,-78 8,-60 223,-60 21,0 38,2 57,7 8,39 26,83 37,127 5,18 4,29 24,29 35,0 129,4 157,-3 0,-17 -40,-116 -47,-136l-146 -412c-6,-16 -8,-32 -15,-48l-35 -91c-6,-20 -4,-30 -32,-30 -39,0 -138,-4 -171,5zm540 685l0 27c24,6 403,6 425,0l1 -105c0,-31 -22,-22 -52,-22 -54,1 -189,9 -214,-8l0 -578c-23,-6 -76,-4 -104,-4 -59,0 -57,-6 -55,47 1,62 -1,142 -1,211 0,144 0,289 0,432zm-2910 -608l0 633c35,10 389,11 426,0l0 -116 -9 -7c-83,-6 -178,9 -257,-6 -6,-156 -1,-362 0,-528 0,-52 10,-58 -45,-58 -118,1 -118,-11 -115,41l0 41z"/>
   <path class="fil1" d="M5141 4823l-243 0c-52,0 -54,65 -82,134 -13,33 -39,75 -61,104 -35,47 -79,93 -133,137 -11,9 -21,14 -34,22 -71,44 -105,57 -187,82 -39,12 -29,37 -50,62 -57,66 -157,59 -212,-10 -9,-10 -5,-4 -11,-17 -4,-9 -5,-9 -9,-18 -20,-49 0,-205 -11,-264 -18,-10 -11,-5 -27,-5l-342 0c-53,0 -106,-41 -106,-98 0,-49 11,-87 56,-110 43,-21 275,-12 345,-12 85,0 73,10 75,-56 2,-43 9,-171 -7,-196 -80,-9 -368,9 -407,-9 -20,-8 -29,-14 -41,-30 -24,-36 -21,-50 -21,-93 0,-27 34,-70 63,-79 49,-15 276,-7 350,-7 83,0 64,27 64,-158 0,-75 -5,-125 41,-177 49,-55 153,-34 173,-18 74,58 21,78 86,89l82 29c41,20 72,42 93,53 66,32 130,98 170,159 5,8 9,17 15,25 11,11 7,2 15,19 15,31 37,65 48,99 39,113 1,100 234,100 48,0 106,8 115,-34 13,-55 -59,-229 -85,-275l-86 -138c-13,-15 -19,-22 -31,-40 -42,-62 -172,-167 -240,-204 -47,-26 -95,-54 -146,-74l-115 -34c-92,-24 -310,-43 -401,-13 -41,13 -57,10 -117,31 -22,7 -37,8 -56,15 -13,5 -12,7 -22,13 -13,7 -16,5 -29,11 -49,23 -96,51 -140,80 -16,10 -27,18 -43,31 -28,24 -53,43 -80,70 -9,9 -29,25 -36,34 -8,9 -5,10 -15,21 -40,42 -102,116 -124,170l-37 76c-10,21 -11,34 -21,54 -22,42 -52,195 -57,238 -12,111 3,229 26,329 13,56 34,112 59,164 13,27 33,73 50,96l29 45c11,17 21,30 32,43l67 78c13,14 23,22 37,38l171 123c72,45 127,60 205,90 19,7 38,11 58,16 144,36 313,31 459,-7 79,-20 163,-54 231,-97l48 -27c39,-20 71,-59 104,-81 19,-13 59,-52 75,-71 28,-33 57,-66 81,-102 7,-10 8,-15 15,-25 40,-56 26,-48 52,-93 18,-33 31,-68 47,-102 12,-26 46,-152 37,-174 -6,-14 -23,-32 -43,-32z"/>
   <path class="fil2" d="M5055 7650c20,0 21,-4 22,-23l0 -130c0,-33 -7,-138 8,-160l137 212c9,16 18,25 28,39 41,60 20,62 68,62 61,0 67,10 69,-19 3,-56 0,-288 0,-366 0,-38 5,-56 -14,-61l-66 1c-1,1 -3,3 -3,2 0,-1 -4,-4 -7,11l0 31c0,13 0,26 0,40 0,47 7,201 -6,217 -14,-4 -18,-22 -28,-36l-89 -139c-5,-9 -9,-12 -13,-18 -27,-35 -24,-37 -38,-60 -8,-12 -35,-50 -44,-50 -110,0 -93,-12 -92,46 0,75 -6,375 3,400l65 1z"/>
   <path class="fil2" d="M4527 7402c0,-5 9,-41 10,-46 5,-13 13,-26 22,-38 39,-53 135,-59 174,-2 14,21 30,47 30,79 0,71 8,93 -32,147 -34,46 -157,60 -194,-41 -12,-32 -10,-66 -10,-99zm155 255c44,0 102,-42 131,-76 58,-66 67,-174 36,-251 -9,-22 -25,-55 -41,-69 -55,-51 -30,-32 -84,-54 -15,-7 -2,-4 -22,-7 -44,-7 -104,-5 -144,12 -27,13 -74,48 -88,72 -7,11 -14,22 -20,35 -29,65 -34,161 -1,222 7,14 5,1 18,29 11,22 53,53 75,66 43,25 93,21 140,21z"/>
   <path class="fil2" d="M4140 7407c-13,0 -10,-2 -22,-1 -24,1 -32,-1 -31,-47 0,-68 -24,-107 85,-83 18,4 8,-3 20,8 30,25 33,81 -5,107 -13,9 -27,16 -47,16zm83 43c6,-12 17,-14 30,-21 13,-8 19,-14 28,-23 34,-34 32,-54 32,-98 0,-61 -54,-94 -109,-102 -27,-4 -187,-7 -206,0 -10,8 -5,299 -5,334 0,26 -9,89 6,105 11,8 3,3 19,5 8,1 16,2 21,3 14,1 29,0 44,0 8,-40 4,-120 4,-164 50,-35 80,7 101,46 13,26 56,82 65,114l101 3c5,-19 0,-18 -9,-31 -9,-13 -15,-33 -32,-54 -27,-34 -19,-32 -32,-50 -21,-30 -53,-57 -58,-67z"/>
   <path class="fil2" d="M2253 7275c1,-1 1,-2 1,-3 5,-19 3,-45 2,-65 -20,-6 -234,-7 -252,-1 -6,14 -1,185 -1,224 0,55 -7,190 3,221 16,4 249,1 262,-4 2,-11 0,-53 -3,-70 -14,-4 -60,-2 -81,-3 -57,-4 -79,13 -85,-12 -1,-1 -1,-2 -1,-3 -1,-1 -1,-2 -1,-4 -1,-3 -1,-11 -1,-15 1,-69 -16,-77 41,-77 122,2 106,14 106,-73 -38,-11 -125,5 -140,-8 -13,-13 -12,-86 0,-105l150 -2z"/>
   <path class="fil2" d="M2750 7410l0 59c0,12 5,42 3,83 0,19 -7,67 1,90 4,9 -6,6 13,10l250 -2 -1 -70c-27,-13 -105,2 -166,-6 -6,-21 -10,-83 0,-111 55,-8 147,21 147,-21 0,-17 2,-36 -3,-52 -41,-10 -95,1 -141,-5 -17,-25 -6,-48 -6,-73 0,-21 -7,-14 3,-34l153 -2c1,-2 1,-5 1,-4 1,1 8,-47 2,-67 -31,-4 -196,-2 -240,-2 -19,0 -13,23 -13,42l0 110c0,21 -3,40 -3,55z"/>
   <path class="fil2" d="M6300 7308c0,-30 52,-42 82,-41 10,0 43,7 52,9 20,5 30,16 46,17 2,-8 3,-8 3,-16 0,-62 7,-67 -35,-76 -68,-13 -199,-10 -232,62 -33,71 -18,123 42,170 33,26 141,44 145,99 6,64 -107,56 -151,40 -20,-7 -29,-18 -52,-19l0 79c60,33 105,25 175,25 18,0 29,-9 43,-14 39,-12 82,-46 82,-95 0,-51 5,-66 -31,-106 -13,-14 -73,-48 -88,-54 -59,-23 -81,-28 -81,-80z"/>
   <path class="fil2" d="M3103 7426c0,109 36,156 104,203 51,35 106,28 163,28 22,0 65,-13 79,-22l4 -64c0,-21 -26,-8 -39,-4 -53,14 -129,17 -168,-24 -44,-47 -43,-130 -24,-191 12,-39 69,-75 113,-75 97,0 58,6 96,14 6,1 15,2 19,-3 5,-10 6,-66 0,-75 -9,-11 -52,-14 -69,-16 -99,-9 -182,21 -235,99 -16,23 -20,34 -28,60 -4,16 -15,53 -15,70z"/>
   <path class="fil2" d="M5750 7414c0,64 -1,99 36,153 23,33 36,51 76,69 63,29 138,29 205,9 6,-2 10,-3 15,-5 6,-2 8,-3 14,-5 7,-130 -5,-58 -87,-58 -47,0 -84,0 -122,-37 -40,-39 -37,-90 -37,-141 0,-30 23,-65 41,-83 42,-42 120,-50 174,-29 37,14 32,11 32,-57 0,-47 -164,-45 -235,-3 -43,26 -84,75 -100,125 -3,9 -12,52 -12,62z"/>
   <path class="fil2" d="M3667 7304l-3 96c6,42 -1,235 4,244 6,11 30,6 44,6 17,0 30,4 45,2 13,-58 -6,-327 5,-372 36,-9 88,3 125,-5l2 -22c0,-62 25,-50 -134,-50 -51,0 -102,0 -153,0 -74,0 -68,-12 -69,43 0,37 -7,31 81,31 32,-1 53,-8 53,27z"/>
   <path class="fil2" d="M2448 7203c-8,0 -16,0 -24,0 -24,0 -37,-5 -41,14l0 410c1,26 3,24 22,24 53,-1 222,3 239,-1 6,-23 3,-50 2,-73 -23,-1 -73,-4 -87,-2 -24,3 -60,6 -78,-4 -14,-14 2,-313 -6,-356l-2 -7 -25 -5z"/>
   <path class="fil2" d="M5661 7651c6,-12 8,-37 6,-56 -3,-23 -14,-11 -36,-23 -5,-45 -1,-120 -1,-170 0,-168 -6,-111 33,-132 5,-17 7,-49 0,-63 -22,-10 -105,-4 -137,-4 -32,0 -32,3 -33,39 -1,43 12,25 38,35 5,15 6,274 1,295 -15,9 -38,0 -37,28 2,31 -6,31 9,53 19,-1 156,-2 157,-2z"/>
  </g>
 </g>
</svg>
