<svg xmlns="http://www.w3.org/2000/svg" xmlns:xlink="http://www.w3.org/1999/xlink" version="1.1" x="0px" y="0px" viewBox="0 0 128 160" style="enable-background:new 0 0 128 128;" xml:space="preserve">
	<g>
		<path d="M29.1625957,49.3721008l-14-10c-0.8984003-0.6397018-2.1479998-0.4336014-2.79,0.4657974   c-0.6420994,0.8984032-0.4341002,2.1475029,0.4647999,2.7900009l13.999999,10C27.1898956,52.8788986,27.5961952,53,27.9984951,53   c0.6236,0,1.2388-0.2910004,1.6289005-0.8378983C30.269495,51.2636986,30.0614948,50.0145988,29.1625957,49.3721008z" />
		<path d="M26.8373947,70.3721008l-13.999999,10c-0.8989,0.6425018-1.1068993,1.8916016-0.4647999,2.7900009   C12.7626963,83.7089996,13.3773956,84,14.0014963,84c0.4022999,0,0.8085995-0.1211014,1.1610994-0.3721008l14-10   c0.8988991-0.6425018,1.1068993-1.8916016,0.4647999-2.7900009C28.9853954,69.9384995,27.7362957,69.7313995,26.8373947,70.3721008   z" />
		<path d="M120.3090897,30.1084003c-0.1777954-0.1543007-4.4081955-3.7539005-9.2787933-3.0634995   c-2.7862015,0.3954983-5.1411057,2.0478992-7,4.9130993c-0.0419998,0.0653992-0.080101,0.1318016-0.1147995,0.2011986   l-5.6074066,11.3222008L101.1957932,9.2275c0.060997-0.7255001-0.277298-1.4267001-0.8827896-1.8309999   c-0.2061081-0.1387-5.1021118-3.3438001-9.7627106-1.1533003c-3.6718979,1.7265-5.9028015,6.1591001-6.6215973,13.102499   l-1.0951996,7.7373009C79.7558975,16.0888996,76.2318954,4.7627001,73.8383942,0.9521   c-0.3281021-0.5224-0.8788986-0.8642-1.4922028-0.9267c-0.1763-0.0147-4.3423004-0.3984-7.3275986,2.6826   c-2.3920975,2.4687998-3.2622986,6.2958994-2.5864983,11.375c0.0074005,0.0565996,0.0171013,0.1122999,0.0293007,0.1680002   L67.6796951,37.8848l-21.3394012,1.7373009c-0.6332932,0.0517006-1.2040977,0.4003983-1.5384979,0.9403992L33.4882965,58.8389015   c-0.2910004,0.4706993-0.3745003,1.0410004-0.2299995,1.5751991c0.1444969,0.5340996,0.5038986,0.9842987,0.9927025,1.2440987   c0.1102943,0.0586014,1.3182945,0.6884995,3.1176949,1.1991997c-0.9990997,0.2344017-2.0317993,0.5606003-3.0976944,0.9776001   c-1.0127029,0.3964005-1.5229988,1.5293045-1.1489029,2.5506973l6.5052986,17.7520065   c0.1021004,0.2782974,0.264698,0.5302963,0.4761009,0.7382965l10.2328987,10.0576019   c0.8261986,2.7352982,4.918499,14.910202,14.081604,21.782196c0.1952972,1.1162033,0.5765991,3.1856003,1.021492,5.0381012   l0.1367035,0.5957031C66.2465973,125.3271027,67.3212967,128,73.0410004,128h18.8075943   c6.466301,0,6.8218002-5.419899,7.1074982-9.7753983l3.0653992-41.8623047l18.8169022-43.9550972   C121.1811905,31.6074009,120.9667969,30.6777,120.3090897,30.1084003z M98.2128906,75.0957031   c-0.0873947,0.2030945-0.1400986,0.419899-0.1562958,0.6405945l-3.0922012,42.2266006   C94.6200943,123.2099991,94.2128906,124,91.8485947,124H73.0410004c-2.993103,0-3.0913086-0.4355011-3.5620041-2.5282974   c0,0-1.2471008-6.1865005-1.2518997-6.2168045c-0.0870056-0.532196-0.3848038-1.006897-0.8256989-1.3163986   c-9.4522018-6.6279984-13.3233032-20.4522018-13.3609047-20.5907974c-0.0931969-0.3409042-0.275898-0.6524048-0.5277977-0.9003983   L43.2284966,82.3388977l-5.6459999-15.4062958c2.8642998-0.8076019,5.2651978-0.6787033,7.1553001,0.3827972   c3.5370979,1.9872971,4.4037971,6.7168045,4.4110985,6.7569046c0.1240005,0.7401962,0.6519012,1.3485947,1.3671989,1.5751953   l9.8989067,3.1416016c0.8134956,0.2587967,1.7016945-0.0284042,2.210495-0.7138977l7.2128983-9.7089996   c0.403801-0.5430069,0.5048981-1.2539063,0.2695007-1.8887024l-4.2426987-11.4238014   c-0.1963043-0.5283012-0.6059036-0.9482002-1.1278992-1.1591988c-0.5229034-0.2108994-1.108902-0.1914024-1.616703,0.0546989   c-5.2431984,2.5303001-10.1117973-1.3036995-10.3101006-1.4628983c-0.4994926-0.4082031-1.1660004-0.5508003-1.7879982-0.3818016   c-0.6231003,0.1688995-1.1264954,0.6278992-1.3516006,1.232399c-1.0951996,2.9375-2.7461014,4.847702-4.9067001,5.6758003   c-2.3325996,0.892601-4.8959999,0.4346008-6.6186981-0.0966988l9.525898-15.3895988l20.9018021-1.7012024L75.5673981,59.3027   c0.4105988,1.0264015,1.5756989,1.5243988,2.6000977,1.1133003c1.0253983-0.410099,1.5238953-1.5741997,1.1138-2.5996017   l-7.2164001-18.0321999c0.0302963-0.2266006,0.0292969-0.4599991-0.0223999-0.6952972l-5.6563034-25.6162014   c-0.4775009-3.6865997,0.0332031-6.4356003,1.4781036-7.9532003c0.9789963-1.0282998,2.2640991-1.3662,3.1283951-1.4735999   C74.8891907,11.6826,82.014595,38.7793007,85.3793945,52.6514015c0.2221985,0.9149971,1.0404968,1.5282974,1.9423981,1.5282974   c0.1557007,0,0.3143997-0.0175972,0.4730988-0.0566978c1.0733032-0.2597008,1.732399-1.3417015,1.4722061-2.4150009   c-0.1607056-0.6621017-1.7036057-6.9990005-3.8290939-15.0391006c0.0687943-0.1590996,0.1254883-0.3270988,0.1508942-0.5078011   l2.309494-16.3290977c0.564003-5.4345007,2.0634995-8.8789005,4.3374023-9.9609003   c1.7173004-0.8174,3.7006989-0.1963005,4.8638,0.3290997l-4.4160004,52.3778992   c-0.0927963,1.1006012,0.7246017,2.0684013,1.8252029,2.1612053c0.0570984,0.0047989,0.1138,0.0067978,0.1703949,0.0067978   c1.0283051,0,1.9023056-0.7881012,1.9906998-1.8320007l0.7769012-9.2159004   c0.2553024-0.1845016,0.4756012-0.4238014,0.625-0.725502l9.375-18.9306984   c1.1987-1.8115005,2.5498047-2.8046989,4.1274033-3.0342007c1.8993988-0.2792988,3.7865982,0.5996017,4.9516983,1.3096027   L98.2128906,75.0957031z M45.1151962,63.0985985c0.3495979-0.0946999,0.7001991-0.2069969,1.0494003-0.339798   c2.6507988-1.0059013,4.748497-2.9501991,6.258297-5.7929993c2.269001,1.2128983,6.1040001,2.6044998,10.394001,1.3691978   l3.1631088,8.5175018l-5.7149086,7.6923981l-7.4658012-2.3691025c-0.5873985-2.0507965-2.195797-6.1337967-6.0673981-8.3280983   C46.211895,63.5527,45.6728935,63.3036995,45.1151962,63.0985985z" />
		<path d="M25,61c0-1.1044998-0.895504-2-2-2H8c-1.1045041,0-2,0.8955002-2,2s0.8954959,2,2,2h15C24.104496,63,25,62.1044998,25,61z" />
	</g>
</svg>
