<?xml version="1.0" encoding="UTF-8"?>
<!DOCTYPE svg PUBLIC "-//W3C//DTD SVG 1.1//EN" "http://www.w3.org/Graphics/SVG/1.1/DTD/svg11.dtd">
<!-- Creator: CorelDRAW X7 -->
<svg xmlns="http://www.w3.org/2000/svg" xml:space="preserve" width="8.5in" height="11in" version="1.1" style="shape-rendering:geometricPrecision; text-rendering:geometricPrecision; image-rendering:optimizeQuality; fill-rule:evenodd; clip-rule:evenodd"
viewBox="0 0 8500 11000"
 xmlns:xlink="http://www.w3.org/1999/xlink">
 <defs>
  <style type="text/css">
   <![CDATA[
    .fil0 {fill:#AA2923}
   ]]>
  </style>
 </defs>
 <g id="Layer_x0020_1">
  <metadata id="CorelCorpID_0Corel-Layer"/>
  <g id="_2317964649136">
   <path class="fil0" d="M4865 3828c0,196 212,113 453,270 50,33 75,88 136,105 0,-334 117,-529 423,-674 237,-112 590,-67 771,108 128,125 177,223 221,422 36,168 14,117 -492,117 -214,0 -428,0 -642,0 30,62 8,141 129,258 181,175 539,168 687,-111l321 0c-19,39 -12,63 -36,112 -320,679 -1219,391 -1302,35l-27 0c-15,188 -225,375 -428,375 -243,0 -372,-24 -499,-250 -42,-74 -26,-81 -58,-143 0,-2 -3,-6 -4,-9l0 335 -295 0 0 -321c-72,83 -98,307 -602,307 -312,0 -575,-184 -575,-495 -28,45 -31,213 -230,399 -185,172 -452,217 -701,132 -83,-29 -155,-74 -219,-89l0 575 -294 0 0 -1083c0,-260 78,-393 210,-525 524,-527 1178,-69 1207,284 40,-29 12,0 20,-32l7 -410 294 0 0 669c0,121 40,169 104,231 67,66 148,79 256,62 198,-31 269,-219 269,-413l0 -549 254 0 0 -521c180,0 295,-27 295,40l0 1378c374,0 260,-24 362,92 94,106 306,108 306,-106 0,-155 -615,-159 -615,-495 0,-151 0,-227 137,-344 236,-200 697,-66 719,197 -80,0 -162,3 -242,1 -115,-2 -93,-54 -186,-54 -68,0 -134,48 -134,120zm-3905 1525c0,105 -15,147 40,147l6527 0c0,-210 -3,-261 -30,-478 -12,-89 -40,-236 -65,-323 -143,-494 -257,-779 -564,-1188 -205,-272 -424,-470 -700,-678 -461,-348 -1150,-623 -1744,-623 -395,0 -580,-3 -977,93 -246,60 -441,129 -652,230 -466,222 -721,470 -1050,824 -185,199 -351,471 -473,716 -151,301 -312,836 -312,1280z"/>
   <path class="fil0" d="M1401 7185l214 0 0 -655c52,35 185,274 218,330l154 248c60,96 -3,77 283,77l0 -1016c-261,0 -229,-24 -227,133l0 522c-8,-9 -14,-15 -24,-29 -15,-22 -12,-18 -25,-42l-154 -247c-33,-51 -189,-296 -198,-337l-241 0 0 1016z"/>
   <path class="fil0" d="M5093 6356l267 0c80,0 121,55 121,134 0,73 -47,134 -121,134l-267 0 0 -268zm-228 829l228 0 0 -388c482,0 323,-3 414,388l228 0c-71,-147 14,-424 -174,-468 51,-70 147,-59 147,-281 0,-159 -146,-267 -308,-267l-535 0 0 1016z"/>
   <path class="fil0" d="M3327 7212c179,0 216,-103 281,-120 1,58 9,41 13,93l147 0 0 -548 -428 0 0 174 214 0c0,158 -138,230 -279,200 -313,-64 -282,-668 39,-668 247,0 173,174 254,174l187 0c-2,-107 -62,-213 -125,-263 -44,-34 -72,-54 -127,-74 -341,-122 -650,76 -676,491 -17,267 170,541 500,541z"/>
   <path class="fil0" d="M3942 6209l0 976 776 0 0 -187 -535 0 0 -241 482 0 0 -187 -482 0 0 -201 522 0 0 -200 -723 0c-30,0 -40,9 -40,40z"/>
   <path class="fil0" d="M6805 6784c-28,12 -27,7 -61,8 -200,10 -216,56 -109,-218 22,-57 20,-93 63,-124 4,45 13,60 26,94 9,24 18,55 27,79 19,52 40,104 54,161zm-616 401l228 0 80 -227 375 0c19,84 62,178 66,227l241 0c-20,-84 -63,-179 -91,-256l-283 -760 -241 0 -184 512c-17,44 -30,75 -49,124 -17,45 -32,86 -48,126l-94 254z"/>
   <path class="fil0" d="M4411 8924l655 0c11,-7 6,-6 26,-14 54,-22 265,-71 456,-146 151,-60 307,-135 440,-215 142,-85 261,-161 395,-261 145,-109 382,-332 505,-471 27,-30 46,-56 73,-87 124,-147 240,-329 338,-492 158,-263 275,-566 351,-866l24 -69 0 -669 -17 197c-65,502 -190,957 -453,1392 -309,511 -622,830 -1105,1155 -46,31 -79,47 -126,75 -380,228 -761,353 -1205,427l-328 33c-30,6 -13,1 -29,11z"/>
   <path class="fil0" d="M7674 5353l0 -682c-2,-3 -4,-7 -5,-9 -27,-51 -22,-66 -38,-122 -9,-35 -24,-89 -35,-125 -65,-211 -188,-486 -297,-666 -103,-170 -126,-214 -255,-387l-463 -500c-81,-82 -349,-281 -458,-346 -187,-112 -309,-187 -528,-274 -84,-34 -146,-59 -233,-88 -38,-12 -78,-27 -120,-40l-123 -38 -508 0 331 57c105,22 338,82 458,130 336,133 340,133 665,325 256,152 455,334 663,541 221,221 519,654 637,942 39,95 73,176 111,277 82,219 186,665 184,912 0,27 -1,69 14,93z"/>
   <path class="fil0" d="M826 4604l0 508 57 -318c19,-91 48,-211 75,-299 29,-96 60,-186 99,-275 102,-234 119,-286 253,-510 186,-311 355,-485 603,-735l201 -173c226,-168 327,-243 589,-374 88,-44 162,-79 257,-117 166,-67 409,-146 585,-178l289 -45c4,-1 8,-1 12,-2 3,-1 7,-2 10,-3l19 -7 -508 0c-17,11 1,2 -27,12 -4,2 -30,9 -31,10 -588,159 -1126,473 -1557,904 -284,284 -408,482 -611,820 -156,263 -208,477 -294,736 0,1 -10,25 -11,29l-10 17z"/>
   <path class="fil0" d="M826 6383l268 695c18,33 36,60 57,103 186,376 490,699 788,978 28,25 59,48 89,71 414,331 763,499 1271,656l94 26c30,10 12,2 28,12l655 0c-16,-10 0,-5 -29,-11l-143 -4c-702,-73 -1275,-320 -1819,-749 -531,-420 -911,-1007 -1120,-1648 -34,-104 -55,-196 -80,-309 -14,-61 -20,-114 -31,-169 -8,-38 -11,-41 -13,-81l-5 -62c0,-4 -2,-8 -2,-11l-8 -19 0 522z"/>
   <polygon class="fil0" points="2458,7185 2685,7185 2685,6169 2458,6169 "/>
   <polygon class="fil0" points="5882,7185 6109,7185 6109,6169 5882,6169 "/>
   <path class="fil0" d="M5842 3922c138,0 276,0 414,0 171,0 336,34 156,-102 -204,-154 -531,-69 -570,102z"/>
   <path class="fil0" d="M2030 4109l-268 13c37,0 275,18 294,27 17,-35 64,-169 67,-214l145 471c16,59 16,115 56,144 4,-51 50,-144 71,-196 27,-69 45,-133 76,-192 159,0 285,-26 455,-26l-482 -14c-45,86 -87,234 -133,268 -2,-63 -56,-232 -75,-300 -19,-68 -71,-243 -73,-302l-26 0c-12,52 -35,116 -52,162 -13,35 -19,42 -30,77 -9,27 -12,55 -25,82z"/>
  </g>
 </g>
</svg>
