<svg xmlns="http://www.w3.org/2000/svg" viewBox="0 0 64 80" x="0px" y="0px">
	<title>
		Video and Movie
	</title>
	<path d="M62,5.25H2a2,2,0,0,0-2,2v49.5a2,2,0,0,0,2,2H62a2,2,0,0,0,2-2V7.25A2,2,0,0,0,62,5.25Zm-2,49.5H4V21.25H60Zm0-37.5H4v-8H60Z" />
	<circle cx="44" cy="13.25" r="2" />
	<circle cx="50" cy="13.25" r="2" />
	<circle cx="56" cy="13.25" r="2" />
	<path d="M8,15.25H22a2,2,0,0,0,0-4H8a2,2,0,0,0,0,4Z" />
	<path d="M26.37,47.34a1.83,1.83,0,0,0,.93.25,1.77,1.77,0,0,0,.92-.25L41.63,39.6a1.85,1.85,0,0,0,0-3.2L28.22,28.66a1.85,1.85,0,0,0-2.77,1.6V45.74A1.85,1.85,0,0,0,26.37,47.34Zm2.78-13.88L37,38l-7.85,4.54Z" />
	<path d="M32,53.5A15.5,15.5,0,1,0,16.5,38,15.51,15.51,0,0,0,32,53.5Zm0-27A11.5,11.5,0,1,1,20.5,38,11.51,11.51,0,0,1,32,26.5Z" />
</svg>
