<svg xmlns="http://www.w3.org/2000/svg" xmlns:xlink="http://www.w3.org/1999/xlink" version="1.1" x="0px" y="0px" viewBox="0 0 66 82.5" style="enable-background:new 0 0 66 66;" xml:space="preserve"><g><path d="M20.3,44.5c3.9,3.3,6.2,7,6.9,11.1c-0.5,0-0.9,0.5-0.9,1v4.6c0,0.6,0.4,1,1,1c1.1,0,2,0.8,2.4,2.1c0.1,0.4,0.5,0.7,1,0.7   h4.9c0.5,0,0.9-0.3,1-0.7c0.3-1.3,1.2-2.1,2.3-2.1c0.6,0,1-0.4,1-1v-4.6c0-0.5-0.4-0.9-0.9-1c0.7-4,3-7.8,6.9-11.1   c4.7-4.1,6.9-10.1,6.3-16.3c-1-9.4-9-17.1-19.1-17.1c-10.6,0-19.2,8.6-19.2,19.2C13.8,35.6,16.2,40.8,20.3,44.5z M37.8,60.3   c-1.4,0.3-2.5,1.3-3,2.7h-3.5c-0.6-1.4-1.7-2.4-3-2.7v-2.7h9.5V60.3z M33,13c9,0,16.2,6.9,17.1,15.3c0.6,5.6-1.5,10.9-5.6,14.6   c-4.4,3.7-6.9,8-7.6,12.6H34V42l6.7-3.3c0.3-0.2,0.6-0.5,0.6-0.9V25.5c1.4-0.4,2.5-1.8,2.5-3.3c0-1.9-1.6-3.5-3.5-3.5   s-3.5,1.6-3.5,3.5c0,1.6,1.1,2.9,2.5,3.3v11.7L34,39.8v-6c1.4-0.4,2.5-1.8,2.5-3.3c0-1.9-1.6-3.5-3.5-3.5s-3.5,1.6-3.5,3.5   c0,1.6,1.1,2.9,2.5,3.3v7.7c0,0,0,0.1,0,0.1v3.9l-6.3-6.1v-10c1.4-0.4,2.5-1.8,2.5-3.3c0-1.9-1.6-3.5-3.5-3.5s-3.5,1.6-3.5,3.5   c0,1.6,1.1,2.9,2.5,3.3v10.4c0,0.3,0.1,0.5,0.3,0.7l8,7.7v7.4h-2.8c-0.7-4.6-3.2-8.8-7.6-12.5c-3.7-3.2-5.7-7.9-5.7-12.8   C15.8,20.7,23.5,13,33,13z M33,31.9c-0.8,0-1.5-0.7-1.5-1.5s0.7-1.5,1.5-1.5s1.5,0.7,1.5,1.5S33.8,31.9,33,31.9z M40.3,23.6   c-0.8,0-1.5-0.7-1.5-1.5s0.7-1.5,1.5-1.5s1.5,0.7,1.5,1.5S41.1,23.6,40.3,23.6z M24.7,27.4c-0.8,0-1.5-0.7-1.5-1.5s0.7-1.5,1.5-1.5   s1.5,0.7,1.5,1.5S25.5,27.4,24.7,27.4z"/><path d="M44.3,49.2c-0.5,0.3-0.6,0.9-0.4,1.4l2,3.4c0.3,0.5,0.9,0.6,1.4,0.4c0.5-0.3,0.6-0.9,0.4-1.4l-2-3.4   C45.4,49.1,44.8,48.9,44.3,49.2z"/><path d="M53,42.3l3.4,2c0.5,0.3,1.1,0.1,1.4-0.4c0.3-0.5,0.1-1.1-0.4-1.4l-3.4-2c-0.5-0.3-1.1-0.1-1.4,0.4   C52.4,41.4,52.5,42,53,42.3z"/><path d="M61.6,29.6c0-0.6-0.4-1-1-1h-3.9c-0.6,0-1,0.4-1,1s0.4,1,1,1h3.9C61.1,30.6,61.6,30.1,61.6,29.6z"/><path d="M54,18.6l3.4-2c0.5-0.3,0.6-0.9,0.4-1.4c-0.3-0.5-0.9-0.6-1.4-0.4l-3.4,2c-0.5,0.3-0.6,0.9-0.4,1.4   C52.9,18.7,53.5,18.9,54,18.6z"/><path d="M45.7,9.6l2-3.4c0.3-0.5,0.1-1.1-0.4-1.4c-0.5-0.3-1.1-0.1-1.4,0.4l-2,3.4c-0.3,0.5-0.1,1.1,0.4,1.4   C44.8,10.2,45.4,10.1,45.7,9.6z"/><path d="M34,5.9V2c0-0.6-0.4-1-1-1s-1,0.4-1,1v3.9c0,0.6,0.4,1,1,1S34,6.5,34,5.9z"/><path d="M21.7,10c0.5-0.3,0.6-0.9,0.4-1.4l-2-3.4c-0.3-0.5-0.9-0.6-1.4-0.4c-0.5,0.3-0.6,0.9-0.4,1.4l2,3.4   C20.6,10.1,21.2,10.2,21.7,10z"/><path d="M13,16.9l-3.4-2c-0.5-0.3-1.1-0.1-1.4,0.4c-0.3,0.5-0.1,1.1,0.4,1.4l3.4,2c0.5,0.3,1.1,0.1,1.4-0.4   C13.6,17.8,13.5,17.2,13,16.9z"/><path d="M10.3,29.6c0-0.6-0.4-1-1-1H5.4c-0.6,0-1,0.4-1,1s0.4,1,1,1h3.9C9.9,30.6,10.3,30.1,10.3,29.6z"/><path d="M9.6,44.2l3.4-2c0.5-0.3,0.6-0.9,0.4-1.4c-0.3-0.5-0.9-0.6-1.4-0.4l-3.4,2c-0.5,0.3-0.6,0.9-0.4,1.4   C8.5,44.4,9.1,44.5,9.6,44.2z"/><path d="M18.7,54.3c0.5,0.3,1.1,0.1,1.4-0.4l2-3.4c0.3-0.5,0.1-1.1-0.4-1.4s-1.1-0.1-1.4,0.4l-2,3.4C18.1,53.5,18.2,54.1,18.7,54.3   z"/></g><text x="0" y="81" fill="#000000" font-size="5px" font-weight="bold" font-family="'Helvetica Neue', Helvetica, Arial-Unicode, Arial, Sans-serif">Created by ProSymbols</text><text x="0" y="86" fill="#000000" font-size="5px" font-weight="bold" font-family="'Helvetica Neue', Helvetica, Arial-Unicode, Arial, Sans-serif">from the Noun Project</text></svg>