
<?xml version="1.0" encoding="UTF-8"?>
<!DOCTYPE svg PUBLIC "-//W3C//DTD SVG 1.1//EN" "http://www.w3.org/Graphics/SVG/1.1/DTD/svg11.dtd">
<!-- Creator: CorelDRAW X7 -->
<svg xmlns="http://www.w3.org/2000/svg" xml:space="preserve" width="8.5in" height="11in" version="1.1" style="shape-rendering:geometricPrecision; text-rendering:geometricPrecision; image-rendering:optimizeQuality; fill-rule:evenodd; clip-rule:evenodd"
viewBox="0 0 8500 11000"
 xmlns:xlink="http://www.w3.org/1999/xlink">
 <defs>
  <style type="text/css">
   <![CDATA[
    .fil0 {fill:black}
   ]]>
  </style>
 </defs>
 <g id="Layer_x0020_1">
  <metadata id="CorelCorpID_0Corel-Layer"/>
  <g id="_2317919366288">
   <path class="fil0" d="M3941 5500c0,-135 211,-325 394,-149 32,31 69,107 69,162 0,303 -463,319 -463,-13zm-193 0c0,246 196,437 425,437 111,0 183,-53 231,-64l0 39c133,0 193,18 193,-39l0 -720c0,-57 -60,-39 -193,-39l0 39c-47,-11 -55,-27 -100,-41 -284,-92 -556,141 -556,388z"/>
   <path class="fil0" d="M2321 5526c0,-331 461,-308 460,-13 -1,320 -460,291 -460,13zm-193 -13c0,230 195,424 424,424 112,0 183,-53 232,-64l0 39c133,0 193,18 193,-39l0 -720c0,-57 -60,-39 -193,-39l0 39c-51,-12 -59,-30 -111,-44 -282,-79 -545,133 -545,404z"/>
   <path class="fil0" d="M6964 5500c0,-171 224,-300 377,-158 29,27 73,95 73,145 0,352 -450,336 -450,13zm-193 39c0,243 286,523 643,334l0 39 193 0 0 -798c-180,0 -178,-16 -193,39 -287,-152 -643,-4 -643,386z"/>
   <path class="fil0" d="M842 5513c0,-194 261,-312 395,-164 30,32 68,108 68,164 0,300 -463,314 -463,0zm-193 0c0,365 454,569 724,299 330,-330 -50,-879 -476,-681l-123 82c-20,20 -14,19 -28,37 -55,76 -97,160 -97,263z"/>
   <path class="fil0" d="M1716 5461c0,-156 -24,-477 13,-603l-206 -1 0 1016c0,57 67,39 193,39 15,-35 0,-72 0,-155 0,-68 0,-137 0,-206 33,23 53,58 77,90l193 271 219 0c-5,-60 6,-20 -28,-63l-255 -336c63,-95 247,-317 283,-386l-195 -4c-1,0 -5,4 -6,2 -6,-17 -42,24 -49,35 -15,20 -18,29 -31,46l-165 221c-29,36 -4,20 -43,34z"/>
   <path class="fil0" d="M3350 6169c15,-29 16,-37 31,-72l419 -983 -219 7 -140 355c-36,105 -21,78 -53,101l-88 -233c-26,-71 -53,-172 -92,-228l-206 -2 103 270c38,84 71,176 107,266 101,249 83,142 -15,392 -19,48 -42,80 -53,127l206 0z"/>
   <path class="fil0" d="M6102 5487c0,-184 263,-305 399,-103l219 0c-57,-243 -350,-350 -567,-257 -176,75 -284,267 -241,486 48,250 395,446 670,238 65,-50 114,-110 138,-195l-206 -2c-46,31 -79,90 -155,90 -191,0 -257,-74 -257,-257z"/>
   <path class="fil0" d="M4945 5114c6,-78 40,-84 115,-90l0 -193c-186,0 -308,93 -308,283l-65 0 0 180 65 0 0 618 193 0 0 -618 102 0 0 -180 -102 0z"/>
   <path class="fil0" d="M5330 5539c0,-66 17,-137 63,-182 41,-41 106,-70 169,-76l0 -154c0,-86 -187,15 -232,26 -11,-30 25,-18 -27,-31l-111 1c-26,-2 -55,-21 -55,30l0 759 193 0 0 -373z"/>
   <path class="fil0" d="M5652 5912l193 0 0 -759c0,-30 -9,-39 -39,-39l-154 0 0 798z"/>
   <path class="fil0" d="M7671 5873c0,30 9,39 39,39 202,0 167,36 167,-193l-206 0 0 154z"/>
   <path class="fil0" d="M5652 5037c89,-50 193,36 193,-39l0 -141 -193 0 0 180z"/>
  </g>
 </g>
</svg>
